<?xml version="1.0" encoding="UTF-8" standalone="no"?>
<!-- Generator: Adobe Illustrator 24.3.0, SVG Export Plug-In . SVG Version: 6.00 Build 0)  -->

<svg
   version="1.1"
   id="Layer_1"
   x="0px"
   y="0px"
   width="1920"
   height="650"
   viewBox="0 0 1920 650"
   enable-background="new 0 0 300 225"
   xml:space="preserve"
   sodipodi:docname="Illustration_5.svg"
   inkscape:version="1.1.2 (0a00cf5339, 2022-02-04, custom)"
   xmlns:inkscape="http://www.inkscape.org/namespaces/inkscape"
   xmlns:sodipodi="http://sodipodi.sourceforge.net/DTD/sodipodi-0.dtd"
   xmlns="http://www.w3.org/2000/svg"
   xmlns:svg="http://www.w3.org/2000/svg"><defs
   id="defs176">
	
	
	<linearGradient
   id="SVGID_1_"
   gradientUnits="userSpaceOnUse"
   x1="99.3116"
   y1="1.4476"
   x2="204.22591"
   y2="230.3047"
   gradientTransform="matrix(7.3866497,0,0,7.3866497,-159.32974,-352.01515)">
		<stop
   offset="0"
   style="stop-color:#001827"
   id="stop6" />
		<stop
   offset="0.1318"
   style="stop-color:#041929"
   id="stop8" />
		<stop
   offset="0.2639"
   style="stop-color:#101B2E"
   id="stop10" />
		<stop
   offset="0.3963"
   style="stop-color:#241F37"
   id="stop12" />
		<stop
   offset="0.5289"
   style="stop-color:#402444"
   id="stop14" />
		<stop
   offset="0.6617"
   style="stop-color:#652B55"
   id="stop16" />
		<stop
   offset="0.7947"
   style="stop-color:#913469"
   id="stop18" />
		<stop
   offset="0.9255"
   style="stop-color:#C53E80"
   id="stop20" />
		<stop
   offset="1"
   style="stop-color:#E6448F"
   id="stop22" />
	</linearGradient>
	
	<linearGradient
   id="SVGID_2_"
   gradientUnits="userSpaceOnUse"
   x1="177.46111"
   y1="154.1411"
   x2="123.9754"
   y2="74.941101"
   gradientTransform="matrix(7.3866497,0,0,7.3866497,-159.32974,-352.01515)">
		<stop
   offset="0"
   style="stop-color:#001827"
   id="stop27" />
		<stop
   offset="0.0939"
   style="stop-color:#0B1A2C"
   id="stop29" />
		<stop
   offset="0.2603"
   style="stop-color:#29203A"
   id="stop31" />
		<stop
   offset="0.4799"
   style="stop-color:#5A2950"
   id="stop33" />
		<stop
   offset="0.7409"
   style="stop-color:#9D366E"
   id="stop35" />
		<stop
   offset="1"
   style="stop-color:#E6448F"
   id="stop37" />
	</linearGradient>
	
	<linearGradient
   id="SVGID_3_"
   gradientUnits="userSpaceOnUse"
   x1="89.071503"
   y1="-21.310699"
   x2="168.7858"
   y2="108.2893"
   gradientTransform="matrix(7.3866497,0,0,7.3866497,-159.32974,-352.01515)">
		<stop
   offset="0"
   style="stop-color:#001827"
   id="stop42" />
		<stop
   offset="0.0939"
   style="stop-color:#0B1A2C"
   id="stop44" />
		<stop
   offset="0.2603"
   style="stop-color:#29203A"
   id="stop46" />
		<stop
   offset="0.4799"
   style="stop-color:#5A2950"
   id="stop48" />
		<stop
   offset="0.7409"
   style="stop-color:#9D366E"
   id="stop50" />
		<stop
   offset="1"
   style="stop-color:#E6448F"
   id="stop52" />
	</linearGradient>
	
	
	
</defs><sodipodi:namedview
   id="namedview174"
   pagecolor="#ffffff"
   bordercolor="#666666"
   borderopacity="1.0"
   inkscape:pageshadow="2"
   inkscape:pageopacity="0.0"
   inkscape:pagecheckerboard="0"
   showgrid="false"
   width="1920px"
   inkscape:zoom="0.35"
   inkscape:cx="1490"
   inkscape:cy="351.42857"
   inkscape:window-width="1920"
   inkscape:window-height="1015"
   inkscape:window-x="0"
   inkscape:window-y="36"
   inkscape:window-maximized="1"
   inkscape:current-layer="Layer_1" />
<g
   id="g842"><path
     fill="url(#SVGID_1_)"
     d="M 1967.087,-106.83746 V 1057.6826 c 0,16.7603 -9.8242,31.2382 -24.0286,37.9674 -5.4514,2.5853 -11.5453,4.0331 -17.9865,4.0331 H -27.736543 c -23.2089,0 -42.015297,-18.799 -42.015297,-42.0005 V -106.83746 c 0,-23.20887 18.806397,-42.0005 42.015297,-42.0005 H 1925.0719 c 23.2088,0 42.0151,18.79163 42.0151,42.0005 z"
     id="path905"
     style="fill:url(#SVGID_1_);stroke-width:7.38665" /><path
     fill="url(#SVGID_2_)"
     d="m 1967.087,-12.3179 v 132.28013 c -32.6563,11.99591 -66.5758,18.17855 -93.7143,19.62633 C 1738.0936,146.8127 1705.4224,39.802296 1588.4548,31.159936 1458.6271,21.55727 1418.3477,147.44794 1238.9629,265.14679 1025.3484,405.31585 981.73768,292.89843 805.89106,396.41495 c -300.2672,176.76991 -272.3974,563.01777 -516.637,662.03585 -113.7174,46.1148 -249.136908,14.8323 -359.0059,-73.72618 V 563.28675 c 109.868992,58.94546 245.2885,79.76841 359.0059,49.07689 244.2396,-65.91106 216.3698,-323.00339 516.637,-440.66532 175.84662,-68.90266 219.45734,5.92409 433.07184,-87.376674 179.3848,-78.342826 219.6642,-162.136966 349.4919,-155.747516 116.9676,5.75419 149.6388,76.98366 284.9179,72.17495 27.1385,-0.96764 61.058,-5.08202 93.7143,-13.06698 z"
     id="path902"
     style="fill:url(#SVGID_2_);stroke-width:7.38665" /><path
     fill="url(#SVGID_3_)"
     d="m 1967.087,-106.83746 v 94.51956 c -32.6563,7.98496 -66.5758,12.09934 -93.7143,13.06698 -135.2791,4.80871 -167.9503,-66.42076 -284.9179,-72.17495 -129.8277,-6.38945 -170.1071,77.40469 -349.4919,155.747516 -213.6145,93.300764 -257.22522,18.474014 -433.07184,87.376674 -300.2672,117.66193 -272.3974,374.75426 -516.637,440.66532 -113.7174,30.69152 -249.136908,9.86857 -359.0059,-49.07689 v -670.12421 c 0,-23.20887 18.806397,-42.0005 42.015297,-42.0005 H 1925.0719 c 23.2088,0 42.0151,18.79163 42.0151,42.0005 z"
     id="path899"
     style="fill:url(#SVGID_3_);stroke-width:7.38665" /><g
     id="g65"
     transform="matrix(7.3866494,0,0,7.3866494,-159.32974,-352.01514)">
		<g
   id="g59">
			<path
   fill="#ffffff"
   d="m 232.624,119.456 c -5.824,10.403 -16.523,18.481 -30.127,22.744 -7.022,2.201 -14.606,3.328 -22.542,3.349 -8.389,0.025 -17.026,-1.197 -25.67,-3.625 -40.05,-11.247 -55.68,-1.705 -70.796,7.523 -4.428,2.703 -9.007,5.499 -14.112,7.697 -5.724,2.465 -11.538,3.91 -17.777,4.42 -0.916,0.075 -1.859,0.112 -2.829,0.112 -4.003,0 -8.458,-0.636 -13.286,-1.899 -4.792,-1.253 -9.962,-3.124 -15.366,-5.561 -2.963,-1.336 -5.675,-2.7 -7.992,-3.936 v -0.34 c 2.344,1.254 5.101,2.643 8.119,4.004 8.463,3.816 20.768,8.183 31.33,7.321 13.829,-1.129 22.943,-6.693 31.757,-12.074 7.556,-4.613 15.368,-9.383 26.198,-11.514 5.833,-1.148 12.033,-1.453 18.953,-0.934 7.77,0.583 16.236,2.184 25.882,4.893 16.882,4.741 33.494,4.837 48.042,0.278 13.53,-4.24 24.168,-12.268 29.954,-22.605 10.025,-17.909 3.917,-39.796 -16.338,-58.547 l 0.204,-0.22 c 5.45,5.045 9.933,10.322 13.326,15.683 3.216,5.083 5.478,10.282 6.725,15.452 2.342,9.716 1.078,19.322 -3.655,27.779 z"
   id="path896" />
		</g>
		<g
   id="g63">
			<path
   fill="#ffffff"
   d="m 119.386,54.064 c -0.872,3.297 -2.959,6.426 -6.036,9.047 -5.649,4.811 -14.21,7.728 -23.487,8.003 -0.482,0.014 -0.964,0.021 -1.445,0.021 -4.397,0 -8.758,-0.593 -12.987,-1.768 -5.068,-1.409 -9.802,-3.62 -14.07,-6.572 C 49.482,54.576 33.779,47.433 12.127,56.218 V 55.803 C 18.108,53.37 23.9,52.062 29.569,51.85 c 5.664,-0.212 11.135,0.651 16.726,2.64 4.97,1.767 9.954,4.403 15.237,8.058 8.137,5.63 18.196,8.563 28.323,8.266 9.21,-0.273 17.702,-3.164 23.3,-7.932 6.476,-5.516 8.129,-12.559 4.657,-19.832 -2.943,-6.163 -7.361,-11.339 -12.053,-15.544 h 0.471 c 0.344,0.311 0.683,0.624 1.016,0.939 4.747,4.489 8.393,9.36 10.836,14.476 1.816,3.802 2.254,7.551 1.304,11.143 z"
   id="path893" />
		</g>
	</g></g>
</svg>
