<?xml version="1.0" encoding="UTF-8" standalone="no"?>
<!-- Generator: Adobe Illustrator 24.3.0, SVG Export Plug-In . SVG Version: 6.00 Build 0)  -->

<svg
   version="1.1"
   id="Layer_1"
   x="0px"
   y="0px"
   width="1280"
   height="876"
   viewBox="0 0 1280 876"
   enable-background="new 0 0 300 225"
   xml:space="preserve"
   sodipodi:docname="Illustration_3.svg"
   inkscape:version="1.1.2 (0a00cf5339, 2022-02-04, custom)"
   xmlns:inkscape="http://www.inkscape.org/namespaces/inkscape"
   xmlns:sodipodi="http://sodipodi.sourceforge.net/DTD/sodipodi-0.dtd"
   xmlns="http://www.w3.org/2000/svg"
   xmlns:svg="http://www.w3.org/2000/svg"><defs
   id="defs204">
	
	
	<linearGradient
   id="SVGID_1_"
   gradientUnits="userSpaceOnUse"
   x1="180.9388"
   y1="205.22569"
   x2="99.681702"
   y2="-39.573898"
   gradientTransform="matrix(5.2605857,0,0,5.2605857,-151.66462,-152.79278)">
		<stop
   offset="0"
   style="stop-color:#081033"
   id="stop6" />
		<stop
   offset="0.131"
   style="stop-color:#0B1338"
   id="stop8" />
		<stop
   offset="0.2778"
   style="stop-color:#131A45"
   id="stop10" />
		<stop
   offset="0.4324"
   style="stop-color:#20275C"
   id="stop12" />
		<stop
   offset="0.5923"
   style="stop-color:#323A7B"
   id="stop14" />
		<stop
   offset="0.7564"
   style="stop-color:#4A51A3"
   id="stop16" />
		<stop
   offset="0.9215"
   style="stop-color:#676DD4"
   id="stop18" />
		<stop
   offset="1"
   style="stop-color:#767CEE"
   id="stop20" />
	</linearGradient>
	
	<linearGradient
   id="SVGID_2_"
   gradientUnits="userSpaceOnUse"
   x1="73.5961"
   y1="121.2957"
   x2="227.1104"
   y2="31.038601"
   gradientTransform="matrix(5.2605857,0,0,5.2605857,-151.66462,-152.79278)">
		<stop
   offset="0"
   style="stop-color:#47DCD6"
   id="stop25" />
		<stop
   offset="0.1354"
   style="stop-color:#46D7D4"
   id="stop27" />
		<stop
   offset="0.2872"
   style="stop-color:#42CACF"
   id="stop29" />
		<stop
   offset="0.4469"
   style="stop-color:#3CB3C6"
   id="stop31" />
		<stop
   offset="0.6122"
   style="stop-color:#3394B9"
   id="stop33" />
		<stop
   offset="0.7818"
   style="stop-color:#286CA9"
   id="stop35" />
		<stop
   offset="0.9526"
   style="stop-color:#1A3B95"
   id="stop37" />
		<stop
   offset="1"
   style="stop-color:#162C8F"
   id="stop39" />
	</linearGradient>
	
	<linearGradient
   id="SVGID_3_"
   gradientUnits="userSpaceOnUse"
   x1="198.3045"
   y1="24.856501"
   x2="153.0473"
   y2="86.056503"
   gradientTransform="matrix(5.2605857,0,0,5.2605857,-151.66462,-152.79278)">
		<stop
   offset="0"
   style="stop-color:#47DCD6"
   id="stop44" />
		<stop
   offset="0.1271"
   style="stop-color:#43CDD0"
   id="stop46" />
		<stop
   offset="0.3701"
   style="stop-color:#38A7C1"
   id="stop48" />
		<stop
   offset="0.7007"
   style="stop-color:#2769A8"
   id="stop50" />
		<stop
   offset="1"
   style="stop-color:#162C8F"
   id="stop52" />
	</linearGradient>
	
	
	
	
</defs><sodipodi:namedview
   id="namedview202"
   pagecolor="#ffffff"
   bordercolor="#666666"
   borderopacity="1.0"
   inkscape:pageshadow="2"
   inkscape:pageopacity="0.0"
   inkscape:pagecheckerboard="0"
   showgrid="false"
   inkscape:zoom="0.7"
   inkscape:cx="595"
   inkscape:cy="447.14286"
   inkscape:window-width="1920"
   inkscape:window-height="1015"
   inkscape:window-x="0"
   inkscape:window-y="36"
   inkscape:window-maximized="1"
   inkscape:current-layer="Layer_1" />
<path
   fill="url(#SVGID_1_)"
   d="M 1362.716,21.816628 V 851.15853 c 0,11.93627 -6.9965,22.24703 -17.1127,27.03942 -3.8823,1.84119 -8.2222,2.87227 -12.8095,2.87227 H -57.947303 c -16.528765,0 -29.922209,-13.38818 -29.922209,-29.91169 V 21.816628 c 0,-16.5287607 13.393444,-29.9116916 29.922209,-29.9116916 H 1332.7938 c 16.5288,0 29.9222,13.3829309 29.9222,29.9116916 z"
   id="path23"
   style="fill:url(#SVGID_1_);stroke-width:5.26059" /><path
   fill="url(#SVGID_2_)"
   d="M 1130.9398,601.34908 C 1017.6111,745.83108 788.72298,785.30125 708.89359,706.86066 662.95815,661.7301 698.18829,608.8086 672.36932,508.0105 625.29234,324.20037 419.9033,155.63015 234.08887,150.89562 85.424702,147.10273 -7.5719325,249.28437 -87.869512,303.45263 V 21.816628 c 0,-16.5287607 13.393444,-29.9116916 29.922209,-29.9116916 H 755.44451 c 8.96403,45.6881886 19.86397,89.1195846 67.07773,126.5223436 69.04519,54.69958 145.37104,47.21377 213.67976,50.186 46.3247,2.02005 88.9617,8.85357 123.145,43.15259 82.3809,82.66484 63.4321,272.50887 -28.4072,389.58321 z"
   id="path42"
   style="fill:url(#SVGID_2_);stroke-width:5.26059" /><path
   fill="url(#SVGID_3_)"
   d="m 1036.202,168.61328 c -31.7845,34.08334 -73.80077,62.79035 -112.22936,79.67683 C 906.11821,256.13364 764.32963,315.8413 664.25225,232.05595 594.51792,173.67922 575.19052,70.871584 595.5753,-8.0950636 h 159.86921 c 8.96403,45.6881886 19.86397,89.1195846 67.07773,126.5223436 69.04519,54.69958 145.37104,47.21377 213.67976,50.186 z"
   id="path55"
   style="fill:url(#SVGID_3_);stroke-width:5.26059" /><g
   id="g59"
   transform="matrix(5.260586,0,0,5.260586,-151.66464,-152.79274)">
		<path
   fill="#ffffff"
   d="m 196.748,196.53 h -0.41 c -4.423,-4.752 -9.392,-8.656 -14.825,-11.641 -13.379,-7.354 -24.087,-6.251 -35.424,-5.083 -7.881,0.812 -16.029,1.651 -25.224,-0.56 -8.567,-2.061 -16.001,-6.275 -22.727,-12.884 -5.928,-5.826 -10.561,-12.705 -15.041,-19.357 -8.228,-12.217 -16,-23.756 -30.1,-25.356 -12.491,-1.417 -26.215,5.577 -40.87,20.807 v -0.431 c 7.479,-7.737 14.745,-13.37 21.67,-16.79 6.627,-3.273 13.098,-4.58 19.234,-3.884 6.501,0.737 12.023,3.505 17.377,8.71 4.749,4.617 8.726,10.523 12.938,16.776 9.118,13.538 18.546,27.537 37.589,32.117 9.145,2.2 17.268,1.363 25.123,0.554 5.467,-0.564 11.121,-1.146 16.939,-0.648 6.512,0.558 12.616,2.444 18.661,5.766 5.539,3.044 10.597,7.036 15.09,11.904 z"
   id="path57" />
	</g><g
   id="g63"
   transform="matrix(5.260586,0,0,5.260586,-151.66464,-152.79274)">
		<path
   fill="#ffffff"
   d="m 287.873,94.402 v 0.384 c -1.216,-0.958 -2.394,-1.96 -3.532,-3.004 -8.893,-8.158 -11.978,-15.775 -14.7,-22.494 -2.397,-5.917 -4.466,-11.026 -9.972,-15.038 -8.475,-6.175 -18.412,-4.864 -27.18,-3.707 -3.269,0.431 -6.359,0.839 -9.149,0.839 -4.095,0 -7.546,-0.877 -9.984,-3.844 -1.926,-2.343 -2.818,-5.592 -2.653,-9.657 0.121,-2.978 0.808,-6.448 2.052,-10.375 h 0.314 c -1.253,3.937 -1.946,7.411 -2.066,10.387 -0.162,3.99 0.707,7.171 2.584,9.455 3.994,4.859 10.884,3.95 18.863,2.897 8.823,-1.164 18.824,-2.483 27.395,3.762 5.575,4.063 7.66,9.209 10.074,15.168 2.71,6.69 5.782,14.273 14.625,22.386 1.074,0.985 2.184,1.933 3.329,2.841 z"
   id="path61" />
	</g>
</svg>
