<?xml version="1.0" encoding="UTF-8" standalone="no"?>
<svg
   data-v-fde0c5aa=""
   viewBox="0 0 300 300"
   class="iconLeft"
   version="1.1"
   id="svg21"
   sodipodi:docname="epico.svg"
   inkscape:version="1.1.2 (0a00cf5339, 2022-02-04, custom)"
   xmlns:inkscape="http://www.inkscape.org/namespaces/inkscape"
   xmlns:sodipodi="http://sodipodi.sourceforge.net/DTD/sodipodi-0.dtd"
   xmlns="http://www.w3.org/2000/svg"
   xmlns:svg="http://www.w3.org/2000/svg">
  <sodipodi:namedview
     id="namedview23"
     pagecolor="#ffffff"
     bordercolor="#666666"
     borderopacity="1.0"
     inkscape:pageshadow="2"
     inkscape:pageopacity="0.0"
     inkscape:pagecheckerboard="0"
     showgrid="false"
     inkscape:zoom="2.1"
     inkscape:cx="180.71429"
     inkscape:cy="139.52381"
     inkscape:window-width="1920"
     inkscape:window-height="1015"
     inkscape:window-x="0"
     inkscape:window-y="36"
     inkscape:window-maximized="1"
     inkscape:current-layer="svg21" />
  <!---->
  <defs
     data-v-fde0c5aa=""
     id="defs7"><linearGradient
   data-v-fde0c5aa=""
   id="76dcf133-2f3d-4574-ae8c-d37e3f7dbbae"
   x1="0"
   y1="0"
   x2="300"
   y2="0"
   gradientUnits="userSpaceOnUse"
   gradientTransform="translate(-0.70664195)"
   inkscape:swatch="gradient">
  <stop
     data-v-fde0c5aa=""
     offset="0%"
     stop-color="#006678"
     stop-opacity="1"
     id="stop2"
     style="stop-color:#e56e3b;stop-opacity:1" />
  <stop
     data-v-fde0c5aa=""
     offset="100%"
     stop-color="#4FA8FF"
     stop-opacity="1"
     id="stop4"
     style="stop-color:#f2b876;stop-opacity:1" />
</linearGradient>

	
	

		
		
		
		
		
		
		
		
		
		
	<linearGradient
   data-v-fde0c5aa=""
   id="76dcf133-2f3d-4574-ae8c-d37e3f7dbbae-6"
   x1="0"
   y1="0"
   x2="300"
   y2="0"
   gradientUnits="userSpaceOnUse"
   gradientTransform="translate(-0.31821849,-0.35956114)">
  <stop
     data-v-fde0c5aa=""
     offset="0%"
     stop-color="#006678"
     stop-opacity="1"
     id="stop2-7" />
  <stop
     data-v-fde0c5aa=""
     offset="100%"
     stop-color="#4FA8FF"
     stop-opacity="1"
     id="stop4-5" />
</linearGradient>
</defs>
  <defs
     data-v-fde0c5aa=""
     id="defs11">
    <!---->
  </defs>
  <defs
     data-v-fde0c5aa=""
     id="defs16">
    <!---->
  </defs>
  <rect
     data-v-fde0c5aa=""
     fill="url(#76dcf133-2f3d-4574-ae8c-d37e3f7dbbae)"
     x="-0.31823003"
     y="-0.35956264"
     width="300"
     height="300"
     class="logo-background-square"
     id="rect9-3"
     style="fill:url(#76dcf133-2f3d-4574-ae8c-d37e3f7dbbae-6)" />
  <!---->
  <style
     type="text/css"
     id="style2014">
	.st0{opacity:0.17;}
	.st1{fill:#FFFFFF;}
	.st2{fill:#FF0000;}
</style>
  <g
     id="g2924"
     transform="translate(0.3884124,-0.35956372)">
    <g
       class="st0"
       id="g2036"
       transform="matrix(0.13226583,0,0,0.13226583,92.484926,91.180064)">
		<path
   d="m 406.22,869.1 c -0.05,-0.08 -0.08,-0.22 -0.15,-0.24 -7.57,-2.07 -13,-7.35 -18.63,-12.36 -7.12,-6.34 -14.31,-12.62 -21.49,-18.89 -1.15,-1 -2.35,-1.97 -3.65,-2.76 -1.57,-0.96 -2.69,-2.1 -2.59,-4.28 -2.7,0 -5.27,0.01 -7.83,0 -18.57,-0.11 -25.93,-19.31 -20.34,-30.87 3.68,-7.62 9.51,-12.54 18.33,-13.15 0.95,-0.07 1.91,-0.12 2.86,-0.12 53.53,-0.01 107.05,0.01 160.58,-0.02 8.12,0 14.47,3.37 18.82,10.08 8.7,13.43 0.92,31.27 -14.88,33.65 -3.37,0.51 -6.84,0.32 -10.27,0.44 -0.94,0.03 -1.88,0 -3.13,0 0.45,2.53 -1.19,3.52 -2.69,4.75 -6.33,5.21 -12.63,10.47 -18.84,15.82 -4.26,3.67 -8.34,7.57 -12.54,11.31 -3.19,2.84 -6.91,4.74 -10.98,5.98 -0.53,0.16 -1.01,0.45 -1.52,0.68 -17.01,-0.02 -34.03,-0.02 -51.06,-0.02 z"
   id="path2016" />

		<path
   d="m 434.91,23.42 c 2.12,0.5 4.29,0.84 6.34,1.53 9.25,3.13 15.53,11.98 15.55,21.86 0.03,15.97 0.01,31.94 0.01,47.9 0,9.75 0.07,19.51 -0.02,29.26 -0.1,11.84 -9.11,23.22 -23.4,23.22 -11.02,0 -20.16,-7.75 -22.53,-18.83 -0.36,-1.66 -0.5,-3.4 -0.51,-5.1 -0.03,-25.24 0.07,-50.49 -0.06,-75.73 -0.07,-12.96 9.86,-22.85 20.46,-23.72 0.25,-0.02 0.47,-0.26 0.71,-0.39 1.16,0 2.3,0 3.45,0 z"
   id="path2018" />

		<path
   d="m 813,412.41 c -0.76,2.02 -1.27,4.19 -2.34,6.04 -2.81,4.85 -6.89,8.42 -12.09,10.52 -1.9,0.77 -4.05,1.27 -6.09,1.27 -27.04,0.08 -54.09,0.05 -81.13,0.05 -5.58,0 -10.17,-2.41 -14.07,-6.14 -4.85,-4.63 -7.38,-10.51 -7.43,-17.14 -0.04,-5.59 2.22,-10.58 5.88,-14.86 4.7,-5.49 10.61,-8.03 17.89,-7.99 25.71,0.12 51.41,0.17 77.12,-0.03 7.96,-0.06 17.45,4.72 21.21,15.05 0.41,1.13 0.7,2.31 1.05,3.47 0,3.26 0,6.51 0,9.76 z"
   id="path2020" />

		<path
   d="m 521.45,686.9 c 9.02,3.78 13.75,10.74 14.22,20.15 0.42,8.32 -3.38,14.95 -10.51,19.42 -3.45,2.16 -7.21,3.17 -11.4,3.17 -54.02,-0.08 -108.05,-0.05 -162.07,-0.05 -14.93,0 -25.38,-14.24 -20.89,-28.5 2.15,-6.81 6.63,-11.47 13.36,-14.21 0,-2.84 0.24,-5.81 -0.05,-8.72 -0.75,-7.78 -1.9,-15.51 -4.09,-23.05 -2.7,-9.32 -7.01,-17.91 -11.6,-26.42 -8.55,-15.87 -19.1,-30.37 -29.77,-44.84 -5.15,-6.99 -11.08,-13.15 -17.37,-18.96 -8.56,-7.91 -15.57,-17.06 -22.28,-26.47 -14.1,-19.8 -24.18,-41.53 -30.75,-64.9 -2.71,-9.66 -4.54,-19.49 -5.72,-29.45 -1.14,-9.57 -1.72,-19.18 -1.71,-28.82 0.02,-20.37 3.36,-40.21 9.2,-59.71 6.28,-20.97 16.06,-40.21 28.13,-58.35 5.51,-8.28 11.95,-15.84 18.66,-23.18 11.53,-12.62 24.41,-23.64 38.63,-33.09 23.77,-15.8 49.74,-26.21 77.72,-31.69 8.24,-1.61 16.53,-2.79 24.96,-2.93 4.95,-0.08 9.88,-0.76 14.83,-0.85 3.99,-0.07 8.01,0.22 11.99,0.55 5.22,0.44 10.43,0.94 15.62,1.65 20.72,2.85 40.7,8.27 59.79,16.99 18.57,8.49 35.41,19.54 50.83,32.85 19.37,16.71 35.31,36.19 47.47,58.72 11.39,21.1 19.12,43.45 22.92,67.14 1.35,8.39 2.2,16.81 2.28,25.32 0.03,3.81 0.33,7.62 0.35,11.43 0.14,29.79 -6.77,58.02 -18.94,85.08 -8.16,18.17 -18.86,34.73 -31.78,49.84 -6.46,7.55 -13.41,14.66 -20.88,21.23 -0.57,0.5 -1.29,1 -1.52,1.65 -1.08,2.96 -3.35,5.06 -5.14,7.52 -5.49,7.58 -10.85,15.25 -16.23,22.9 -5.95,8.45 -11.27,17.29 -15.82,26.56 -4.59,9.37 -8.53,19 -10.35,29.34 -1.31,7.43 -2.35,14.89 -2.09,22.68 z M 277.1,390.82 c 6.28,-0.11 9.47,-2.4 11.47,-8.36 0.12,-0.36 0.21,-0.73 0.31,-1.1 0.71,-2.48 1.4,-4.96 2.12,-7.43 3.06,-10.39 7.13,-20.35 12.69,-29.67 12.12,-20.31 27.65,-37.4 47.51,-50.42 8.1,-5.31 16.75,-9.53 25.64,-13.31 2.87,-1.22 5.33,-2.85 7.29,-5.34 3.93,-5 4.34,-10.13 -0.33,-16.17 -1.44,-1.86 -3.25,-3.49 -5.59,-3.73 -3.97,-0.4 -8.05,-0.71 -11.82,1.14 -7.36,3.62 -14.9,6.96 -21.99,11.06 -11.42,6.62 -22.2,14.21 -31.45,23.76 -4.26,4.39 -8.56,8.74 -12.83,13.12 -0.4,0.41 -0.76,0.86 -1.14,1.29 -5.21,6 -9.71,12.51 -14,19.19 -9.83,15.32 -16.75,31.91 -21.38,49.47 -1.9,7.22 2.17,14.16 9.25,16.04 1.36,0.35 2.83,0.32 4.25,0.46 z"
   id="path2022" />

		<path
   d="m 432.6,736.71 c 26.95,0 53.9,0.13 80.85,-0.07 8.74,-0.07 19.19,6.23 21.58,17.53 2.62,12.41 -6.16,24.67 -18.77,26.05 -1.42,0.16 -2.86,0.22 -4.29,0.22 -52.94,0.01 -105.89,0 -158.83,0.02 -5.85,0 -11.09,-1.57 -15.61,-5.4 -6.93,-5.87 -9.69,-16.55 -5.91,-24.78 3.96,-8.62 10.62,-13.57 20.43,-13.57 26.84,0 53.69,0 80.55,0 z"
   id="path2024" />

		<path
   d="m 709.82,663.28 c 0.34,18.65 -19.97,28.42 -34.16,20.57 -1.49,-0.83 -2.99,-1.79 -4.18,-2.98 -5.47,-5.47 -10.85,-11.04 -16.25,-16.58 -0.6,-0.61 -1.14,-1.28 -1.74,-1.9 -9.9,-10.1 -19.82,-20.18 -29.7,-30.3 -3,-3.07 -5.95,-6.21 -8.82,-9.4 -6.83,-7.6 -6.98,-20.66 -0.39,-28.86 6.32,-7.87 17.19,-10.93 26.63,-7.53 4.27,1.54 7.52,4.48 10.6,7.63 3.87,3.96 7.62,8.04 11.49,12.01 6.07,6.22 12.23,12.36 18.29,18.6 7.32,7.54 14.64,15.07 21.82,22.74 4.05,4.31 6.72,8.98 6.41,16 z"
   id="path2026" />

		<path
   d="m 254.28,207.71 c 0,9.98 -5.8,18.6 -14.83,22.03 -3.14,1.19 -6.45,1.63 -9.84,1.08 -1.5,-0.24 -3.05,-0.26 -4.53,-0.58 -4.04,-0.88 -7.39,-3.04 -10.25,-5.95 -10.46,-10.62 -20.92,-21.24 -31.32,-31.9 -7.46,-7.65 -14.73,-15.49 -22.27,-23.05 -9.65,-9.67 -9.6,-26.85 2.73,-35.64 7.6,-5.41 19.2,-6.41 27.22,0.34 3.42,2.88 6.48,6.19 9.69,9.32 0.68,0.67 1.28,1.42 1.95,2.1 10.57,10.77 21.17,21.52 31.72,32.32 4.61,4.71 9.26,9.38 13.65,14.29 3.98,4.45 6.46,9.66 6.08,15.64 z"
   id="path2028" />

		<path
   d="m 254.3,607.64 c 0.11,7.04 -2.29,12.43 -6.79,17.02 -9.62,9.83 -19.19,19.7 -28.75,29.59 -7.17,7.41 -14.22,14.94 -21.48,22.26 -2.6,2.62 -5.39,5.28 -8.57,7.06 -14.69,8.25 -32.06,-1.48 -34.16,-16.6 -0.97,-6.94 0.69,-13.34 5.39,-18.66 3.47,-3.93 7.22,-7.61 10.87,-11.38 0.93,-0.96 1.98,-1.8 2.9,-2.76 8.77,-9.04 17.53,-18.09 26.28,-27.15 4.64,-4.81 9.3,-9.6 13.88,-14.47 6.51,-6.91 14.45,-9.18 23.47,-6.74 8.81,2.39 14.35,8.33 16.55,17.26 0.14,0.55 0.25,1.12 0.29,1.69 0.06,1.16 0.09,2.3 0.12,2.88 z"
   id="path2030" />

		<path
   d="m 610.95,207.26 c -0.1,-6.16 2.28,-11.32 6.51,-15.67 10.71,-11.03 21.46,-22.02 32.16,-33.06 6.84,-7.06 13.61,-14.2 20.45,-21.26 3.32,-3.43 7.24,-5.9 11.9,-7.08 15.53,-3.92 29.82,8.07 28.95,24.23 -0.29,5.41 -2.41,10.08 -6.3,14.02 -6.44,6.52 -12.64,13.27 -19.04,19.83 -10.66,10.94 -21.39,21.8 -32.1,32.7 -1.67,1.7 -3.21,3.56 -5.07,5.03 -7.66,6.03 -16.19,6.68 -24.75,2.65 -8.42,-3.97 -12.41,-11.23 -12.71,-20.51 -0.01,-0.31 0,-0.6 0,-0.88 z"
   id="path2032" />

		<path
   d="m 110.65,384.2 c 12.91,0 25.82,0.06 38.73,-0.02 9.81,-0.06 16.55,4.86 20.78,13.19 6.88,13.57 -1.58,29.4 -15.92,32.59 -1.29,0.29 -2.66,0.32 -3.99,0.32 -26.49,0.02 -52.98,-0.16 -79.46,0.11 -8.34,0.09 -21.01,-8.8 -21.62,-20.73 -0.4,-7.81 1.78,-14.28 7.45,-19.53 4.12,-3.82 8.92,-6.02 14.74,-5.97 13.09,0.12 26.19,0.04 39.29,0.04 z"
   id="path2034" />

	</g>
    <path
       class="st1"
       d="m 145.80128,205.71963 c -0.007,-0.0106 -0.0106,-0.0291 -0.0198,-0.0317 -1.00125,-0.27379 -1.71945,-0.97215 -2.46411,-1.6348 -0.94173,-0.83857 -1.89272,-1.6692 -2.84239,-2.4985 -0.15211,-0.13227 -0.31083,-0.26057 -0.48277,-0.36506 -0.20766,-0.12697 -0.3558,-0.27776 -0.34257,-0.56609 -0.35712,0 -0.69704,0.001 -1.03564,0 -2.45618,-0.0146 -3.42966,-2.55406 -2.69029,-4.08305 0.48674,-1.00787 1.25785,-1.65861 2.42443,-1.7393 0.12566,-0.009 0.25263,-0.0159 0.37828,-0.0159 7.08019,-0.001 14.15906,10e-4 21.23925,-0.003 1.074,0 1.91389,0.44573 2.48924,1.33324 1.15072,1.77633 0.12169,4.13595 -1.96811,4.45074 -0.44574,0.0675 -0.9047,0.0423 -1.35837,0.0582 -0.12433,0.004 -0.24866,0 -0.41399,0 0.0595,0.33463 -0.1574,0.46557 -0.3558,0.62826 -0.83724,0.68911 -1.67052,1.38482 -2.49189,2.09245 -0.56345,0.48541 -1.1031,1.00125 -1.65861,1.49592 -0.42193,0.37564 -0.91396,0.62694 -1.45228,0.79095 -0.0701,0.0212 -0.13359,0.0595 -0.20104,0.0899 -2.25117,-0.003 -4.50233,-0.003 -6.7535,-0.003 z"
       id="path2038"
       style="stroke-width:0.132266" />
    <path
       class="st1"
       d="m 149.59599,93.86506 c 0.2804,0.06613 0.56742,0.111104 0.83856,0.202367 1.22346,0.413992 2.05409,1.584545 2.05674,2.891331 0.004,2.112285 0.001,4.224572 0.001,6.335532 0,1.28959 0.009,2.58051 -0.003,3.8701 -0.0132,1.56603 -1.20495,3.07121 -3.09503,3.07121 -1.45756,0 -2.66647,-1.02506 -2.97994,-2.49056 -0.0476,-0.21956 -0.0661,-0.44971 -0.0675,-0.67456 -0.004,-3.33839 0.009,-6.6781 -0.008,-10.01649 -0.009,-1.714166 1.30415,-3.022275 2.70616,-3.137346 0.0331,-0.0026 0.0622,-0.03439 0.0939,-0.05158 0.15343,0 0.30421,0 0.45632,0 z"
       id="path2040"
       style="stroke-width:0.132266" />
    <path
       class="st1"
       d="m 199.60438,145.31515 c -0.10053,0.26717 -0.16798,0.55419 -0.30951,0.79888 -0.37166,0.64149 -0.91131,1.11368 -1.59909,1.39144 -0.2513,0.10184 -0.53568,0.16798 -0.8055,0.16798 -3.57647,0.0106 -7.15426,0.007 -10.73073,0.007 -0.73804,0 -1.34514,-0.31876 -1.86098,-0.81211 -0.64148,-0.61239 -0.97612,-1.39012 -0.98273,-2.26704 -0.005,-0.73937 0.29363,-1.39937 0.77772,-1.96547 0.62165,-0.72614 1.40334,-1.06209 2.36624,-1.0568 3.40055,0.0159 6.79978,0.0225 10.20034,-0.004 1.05284,-0.008 2.30804,0.62429 2.80536,1.9906 0.0542,0.14946 0.0926,0.30553 0.13888,0.45896 0,0.43119 0,0.86105 0,1.29092 z"
       id="path2042"
       style="stroke-width:0.132266" />
    <path
       class="st1"
       d="m 161.04095,181.62079 c 1.19304,0.49997 1.81866,1.42054 1.88082,2.66516 0.0555,1.10045 -0.44706,1.97737 -1.39011,2.5686 -0.45632,0.2857 -0.95364,0.41928 -1.50783,0.41928 -7.145,-0.0106 -14.29133,-0.007 -21.43633,-0.007 -1.97473,0 -3.3569,-1.88346 -2.76303,-3.76957 0.28437,-0.90073 0.87692,-1.51709 1.76707,-1.8795 0,-0.37564 0.0317,-0.76847 -0.007,-1.15336 -0.0992,-1.02903 -0.25131,-2.05144 -0.54097,-3.04873 -0.35712,-1.23272 -0.92718,-2.36888 -1.53428,-3.49446 -1.13088,-2.09906 -2.52628,-4.01691 -3.93756,-5.9308 -0.68116,-0.92454 -1.4655,-1.7393 -2.29745,-2.50776 -1.1322,-1.04622 -2.05938,-2.25646 -2.94689,-3.50108 -1.86494,-2.61886 -3.19818,-5.493 -4.06717,-8.58405 -0.35844,-1.27769 -0.60049,-2.57786 -0.75656,-3.89523 -0.15078,-1.26578 -0.2275,-2.53686 -0.22618,-3.8119 0.003,-2.69425 0.44442,-5.31841 1.21685,-7.89759 0.83063,-2.77362 2.12419,-5.31841 3.72064,-7.71771 0.72878,-1.09516 1.58057,-2.09509 2.46808,-3.06593 1.52502,-1.66919 3.22861,-3.12676 5.10943,-4.37667 3.14396,-2.0898 6.5789,-3.46669 10.2797,-4.19151 1.08987,-0.21294 2.18635,-0.36902 3.30135,-0.38753 0.65472,-0.0106 1.30679,-0.10053 1.96151,-0.11243 0.52774,-0.009 1.05944,0.0291 1.58586,0.0727 0.69043,0.0582 1.37953,0.12433 2.06599,0.21823 2.74055,0.37696 5.38322,1.09384 7.90818,2.2472 2.45618,1.12294 4.68353,2.58447 6.72307,4.34493 2.56199,2.21017 4.67031,4.7867 6.27866,7.76665 1.50651,2.79081 2.52892,5.74695 3.03153,8.88033 0.17856,1.10971 0.29099,2.22339 0.30157,3.34897 0.004,0.50393 0.0437,1.00787 0.0463,1.5118 0.0185,3.9402 -0.89544,7.67406 -2.50511,11.25318 -1.07929,2.40327 -2.49454,4.59359 -4.20341,6.59213 -0.85444,0.9986 -1.77369,1.93901 -2.76171,2.808 -0.0754,0.0661 -0.17062,0.13226 -0.20105,0.21824 -0.14284,0.3915 -0.44309,0.66926 -0.67984,0.99464 -0.72614,1.00257 -1.43509,2.01705 -2.14668,3.02888 -0.78698,1.11765 -1.49063,2.28688 -2.09244,3.51298 -0.6071,1.23934 -1.12823,2.51306 -1.36895,3.88068 -0.17195,0.98274 -0.30951,1.96944 -0.27644,2.99979 z m -32.31783,-39.16126 c 0.83063,-0.0146 1.25256,-0.31744 1.51709,-1.10575 0.0159,-0.0476 0.0278,-0.0966 0.041,-0.14549 0.0939,-0.32802 0.18517,-0.65604 0.2804,-0.98273 0.40474,-1.37425 0.94306,-2.69161 1.67846,-3.92433 1.60306,-2.68632 3.65715,-4.94674 6.28395,-6.66884 1.07135,-0.70234 2.21545,-1.2605 3.39129,-1.76046 0.3796,-0.16137 0.70498,-0.37696 0.96422,-0.7063 0.5198,-0.66133 0.57403,-1.33985 -0.0436,-2.13874 -0.19046,-0.24601 -0.42986,-0.46161 -0.73936,-0.49335 -0.5251,-0.0529 -1.06474,-0.0939 -1.56339,0.15078 -0.97347,0.4788 -1.97076,0.92057 -2.90852,1.46286 -1.51048,0.8756 -2.9363,1.8795 -4.15976,3.14264 -0.56345,0.58064 -1.1322,1.156 -1.69697,1.73533 -0.0529,0.0542 -0.10052,0.11374 -0.15079,0.17062 -0.6891,0.79359 -1.2843,1.65464 -1.85172,2.53818 -1.30017,2.02631 -2.21545,4.2206 -2.82784,6.54319 -0.25131,0.95496 0.28702,1.87288 1.22346,2.12154 0.17988,0.0463 0.37431,0.041 0.56213,0.0608 z"
       id="path2044"
       style="stroke-width:0.132266" />
    <path
       class="st2"
       d="m 149.28913,188.20895 c 3.56457,0 7.12913,0.0172 10.69369,-0.009 1.15601,-0.009 2.53819,0.82401 2.8543,2.31862 0.34654,1.64141 -0.81476,3.26299 -2.48263,3.44552 -0.18782,0.0212 -0.37828,0.0291 -0.56742,0.0291 -7.00215,0.001 -14.00563,0 -21.00778,0.003 -0.77376,0 -1.46683,-0.20765 -2.06467,-0.71423 -0.9166,-0.7764 -1.28166,-2.189 -0.78169,-3.27755 0.52377,-1.14013 1.40466,-1.79485 2.70219,-1.79485 3.55001,0 7.10267,0 10.65401,0 z"
       id="path2046"
       style="stroke-width:0.132266;fill:#ffffff" />
    <path
       class="st1"
       d="m 185.95719,178.49667 c 0.045,2.46676 -2.64135,3.759 -4.5182,2.72071 -0.19708,-0.10978 -0.39548,-0.23675 -0.55287,-0.39415 -0.7235,-0.72349 -1.43509,-1.46021 -2.14932,-2.19297 -0.0794,-0.0807 -0.15079,-0.1693 -0.23015,-0.2513 -1.30943,-1.33589 -2.6215,-2.66913 -3.92829,-4.00766 -0.3968,-0.40605 -0.78698,-0.82137 -1.16659,-1.2433 -0.90337,-1.00522 -0.92321,-2.73261 -0.0516,-3.81719 0.83592,-1.04093 2.27365,-1.44566 3.52224,-0.99596 0.56477,0.20369 0.99464,0.59255 1.40202,1.00919 0.51187,0.52377 1.00786,1.06342 1.51973,1.58851 0.80286,0.8227 1.61761,1.63481 2.41914,2.46015 0.96819,0.99728 1.93638,1.99324 2.88604,3.00772 0.53568,0.57007 0.88883,1.18775 0.84783,2.11625 z"
       id="path2048"
       style="stroke-width:0.132266" />
    <path
       class="st1"
       d="m 125.70481,118.24033 c 0,1.32001 -0.76714,2.46014 -1.9615,2.91382 -0.41532,0.15739 -0.85311,0.21559 -1.3015,0.14284 -0.19839,-0.0317 -0.40341,-0.0344 -0.59916,-0.0767 -0.53435,-0.11639 -0.97744,-0.40209 -1.35573,-0.78698 -1.3835,-1.40467 -2.767,-2.80801 -4.14256,-4.21928 -0.9867,-1.01184 -1.94828,-2.0488 -2.94556,-3.04873 -1.27637,-1.27901 -1.26975,-3.55134 0.36108,-4.71395 1.00523,-0.71556 2.53951,-0.84783 3.60028,0.045 0.45235,0.38092 0.85708,0.81872 1.28166,1.23271 0.0899,0.0886 0.1693,0.18782 0.25791,0.27776 1.39805,1.42451 2.80007,2.84636 4.19548,4.27483 0.60974,0.62298 1.22478,1.24066 1.80543,1.89008 0.52641,0.58859 0.85443,1.27769 0.80417,2.06864 z"
       id="path2050"
       style="stroke-width:0.132266" />
    <path
       class="st1"
       d="m 125.70746,171.1374 c 0.0145,0.93115 -0.30289,1.64407 -0.89809,2.25117 -1.2724,1.30017 -2.53818,2.60563 -3.80264,3.91374 -0.94835,0.98009 -1.88082,1.97606 -2.84107,2.94424 -0.34389,0.34654 -0.71291,0.69836 -1.13352,0.9338 -1.94298,1.09119 -4.24044,-0.19576 -4.5182,-2.19561 -0.1283,-0.91793 0.0913,-1.76443 0.71291,-2.46809 0.45897,-0.5198 0.95496,-1.00654 1.43773,-1.50518 0.12301,-0.12698 0.26189,-0.23808 0.38357,-0.36505 1.15998,-1.19569 2.31862,-2.39269 3.47595,-3.59102 0.61371,-0.6362 1.23007,-1.26975 1.83585,-1.91389 0.86105,-0.91395 1.91124,-1.2142 3.10428,-0.89147 1.16526,0.31612 1.89801,1.10177 2.189,2.28291 0.0185,0.0727 0.0331,0.14814 0.0384,0.22353 0.008,0.15343 0.0119,0.30421 0.0159,0.38092 z"
       id="path2052"
       style="stroke-width:0.132266" />
    <path
       class="st1"
       d="m 172.88007,118.18081 c -0.0132,-0.81476 0.30156,-1.49725 0.86105,-2.07261 1.41656,-1.45889 2.83842,-2.91249 4.25367,-4.3727 0.90469,-0.9338 1.80013,-1.87818 2.70483,-2.81197 0.43912,-0.45368 0.95761,-0.78037 1.57396,-0.93645 2.05409,-0.51848 3.94417,1.06739 3.8291,3.2048 -0.0384,0.71556 -0.31876,1.33324 -0.83327,1.85437 -0.8518,0.86237 -1.67184,1.75517 -2.51835,2.62283 -1.40995,1.44699 -2.82916,2.8834 -4.24573,4.3251 -0.22088,0.22485 -0.42457,0.47086 -0.67059,0.66529 -1.01315,0.79757 -2.14138,0.88354 -3.27358,0.35051 -1.11367,-0.5251 -1.64141,-1.48535 -1.68109,-2.71278 -10e-4,-0.041 0,-0.0794 0,-0.11639 z"
       id="path2054"
       style="stroke-width:0.132266" />
    <path
       class="st1"
       d="m 106.70747,141.58393 c 1.70755,0 3.4151,0.008 5.12266,-0.003 1.29752,-0.008 2.189,0.64281 2.74848,1.74459 0.90999,1.79484 -0.20898,3.88861 -2.10567,4.31054 -0.17062,0.0384 -0.35183,0.0423 -0.52774,0.0423 -3.50372,0.003 -7.00745,-0.0212 -10.50985,0.0145 -1.10309,0.0119 -2.7789,-1.16394 -2.859583,-2.74188 -0.05291,-1.03299 0.235434,-1.88875 0.985381,-2.58315 0.544932,-0.50525 1.179812,-0.79624 1.949602,-0.78962 1.73136,0.0159 3.46404,0.005 5.19672,0.005 z"
       id="path2056"
       style="stroke-width:0.132266" />
  </g>
</svg>
