<?xml version="1.0" encoding="UTF-8" standalone="no"?>
<svg
   width="512"
   height="512"
   viewBox="0 0 512 512"
   version="1.1"
   id="svg4"
   sodipodi:docname="github.svg"
   inkscape:version="1.1.2 (0a00cf5339, 2022-02-04, custom)"
   xmlns:inkscape="http://www.inkscape.org/namespaces/inkscape"
   xmlns:sodipodi="http://sodipodi.sourceforge.net/DTD/sodipodi-0.dtd"
   xmlns="http://www.w3.org/2000/svg"
   xmlns:svg="http://www.w3.org/2000/svg">
  <defs
     id="defs8" />
  <sodipodi:namedview
     id="namedview6"
     pagecolor="#ffffff"
     bordercolor="#666666"
     borderopacity="1.0"
     inkscape:pageshadow="2"
     inkscape:pageopacity="0.0"
     inkscape:pagecheckerboard="0"
     showgrid="false"
     width="512px"
     inkscape:zoom="0.8700728"
     inkscape:cx="455.70899"
     inkscape:cy="208.02857"
     inkscape:window-width="1920"
     inkscape:window-height="1015"
     inkscape:window-x="0"
     inkscape:window-y="36"
     inkscape:window-maximized="1"
     inkscape:current-layer="svg4" />
  <path
     d="M 257.3424,4.4448545 C 117.43367,4.4448545 4.0852659,117.88823 4.0852659,257.702 c 0,111.95549 72.5581731,206.84778 173.1170941,240.32521 12.71034,2.39012 17.30063,-5.44504 17.30063,-12.21966 0,-6.01485 -0.14246,-21.92257 -0.23743,-43.03788 -70.48463,15.25874 -85.33184,-34.04727 -85.33184,-34.04727 -11.539023,-29.18787 -28.190682,-37.02302 -28.190682,-37.02302 -22.919772,-15.65447 1.820286,-15.32206 1.820286,-15.32206 25.389026,1.72531 38.748346,26.038 38.748346,26.038 22.58736,38.74834 59.26218,27.54172 73.77696,21.02035 2.21601,-16.31927 8.81652,-27.54171 16.0027,-33.79401 C 154.86824,363.2944 95.748525,341.53012 95.748525,244.48514 c 0,-27.71583 9.813715,-50.28737 26.038005,-68.01538 -2.80166,-6.34724 -11.38075,-32.14782 2.23181,-67.03399 0,0 21.19447,-6.7588 69.64573,25.97468 20.2764,-5.61913 41.80325,-8.42079 63.31429,-8.56325 21.52686,0.14246 43.03788,2.95994 63.31429,8.56325 48.16634,-32.73348 69.34497,-25.97468 69.34497,-25.97468 13.59674,34.88617 5.01766,60.67091 2.54839,67.03399 16.066,17.72801 25.87972,40.31538 25.87972,68.01538 0,97.26658 -59.19885,118.7143 -115.48525,124.90326 8.80067,7.58188 17.04736,23.17304 17.04736,46.83675 0,33.87314 -0.31657,61.16161 -0.31657,69.40828 0,6.5847 4.43201,14.49897 17.47475,11.95058 C 438.08889,464.4548 510.56791,369.48338 510.56791,257.68617 510.56791,117.8724 397.2195,4.4290254 257.31077,4.4290254 Z"
     id="path2"
     style="stroke-width:15.8285" />
</svg>
