<?xml version="1.0" encoding="UTF-8" standalone="no"?>
<svg
   data-v-fde0c5aa=""
   viewBox="0 0 300 300"
   class="iconLeft"
   version="1.1"
   id="svg25"
   sodipodi:docname="kevbot.svg"
   inkscape:version="1.1.2 (0a00cf5339, 2022-02-04, custom)"
   xmlns:inkscape="http://www.inkscape.org/namespaces/inkscape"
   xmlns:sodipodi="http://sodipodi.sourceforge.net/DTD/sodipodi-0.dtd"
   xmlns="http://www.w3.org/2000/svg"
   xmlns:svg="http://www.w3.org/2000/svg">
  <sodipodi:namedview
     id="namedview27"
     pagecolor="#ffffff"
     bordercolor="#666666"
     borderopacity="1.0"
     inkscape:pageshadow="2"
     inkscape:pageopacity="0.0"
     inkscape:pagecheckerboard="0"
     showgrid="false"
     inkscape:zoom="2.1"
     inkscape:cx="149.7619"
     inkscape:cy="150"
     inkscape:window-width="1920"
     inkscape:window-height="1015"
     inkscape:window-x="0"
     inkscape:window-y="36"
     inkscape:window-maximized="1"
     inkscape:current-layer="svg25" />
  <!---->
  <defs
     data-v-fde0c5aa=""
     id="defs7">
    <linearGradient
       data-v-fde0c5aa=""
       gradientTransform="rotate(25)"
       id="b3d1bbf3-48a7-478d-84b5-12b585c8eabf"
       x1="0%"
       y1="0%"
       x2="100%"
       y2="0%">
      <stop
         data-v-fde0c5aa=""
         offset="0%"
         stop-color="#1E0B36"
         stop-opacity="1"
         id="stop2" />
      <stop
         data-v-fde0c5aa=""
         offset="100%"
         stop-color="#CA3782"
         stop-opacity="1"
         id="stop4" />
    </linearGradient>
  </defs>
  <rect
     data-v-fde0c5aa=""
     fill="url(#b3d1bbf3-48a7-478d-84b5-12b585c8eabf)"
     x="0"
     y="0"
     width="300px"
     height="300px"
     class="logo-background-square"
     id="rect9" />
  <defs
     data-v-fde0c5aa=""
     id="defs11">
    <!---->
  </defs>
  <defs
     data-v-fde0c5aa=""
     id="defs16">
    <!---->
  </defs>
  <g
     data-v-fde0c5aa=""
     id="f3547e7b-6dc7-4194-bae4-089e59ae8afe"
     stroke="none"
     fill="#ffffff"
     transform="matrix(1.112574,0,0,1.112574,94.371304,95.483878)">
    <g
       id="g22">
      <path
         d="m 35,62 a 2,2 0 1 0 0,-4 2,2 0 0 0 0,4 z m 0,4 a 6,6 0 1 1 0,-12 6,6 0 0 1 0,12 z m 30,-4 a 2,2 0 1 0 0,-4 2,2 0 0 0 0,4 z m 0,4 a 6,6 0 1 1 0,-12 6,6 0 0 1 0,12 z"
         id="path18" />
      <path
         d="m 50,20 c 21.434,0 31.382,8.614 36,16.61 V 10 h 4 V 70 C 90,70 90,90 50,90 10,90 10,70 10,70 V 10 h 4 V 36.61 C 18.618,28.614 28.566,20 50,20 Z M 20,60 c 0,-8.284 6.708,-15 15.005,-15 h 29.99 C 73.282,45 80,51.714 80,60 80,68.284 73.292,75 64.995,75 H 35.005 C 26.718,75 20,68.286 20,60 Z M 14,10 a 2,2 0 1 0 -4,0 z m 76,0 a 2,2 0 1 0 -4,0 z"
         id="path20" />
    </g>
  </g>
  <!---->
</svg>
