<?xml version="1.0" encoding="UTF-8" standalone="no"?>
<svg
   data-v-423bf9ae=""
   viewBox="0 0 172 52"
   class="font"
   version="1.1"
   id="svg5"
   sodipodi:docname="logo.svg"
   width="172"
   height="52"
   inkscape:version="1.1.2 (0a00cf5339, 2022-02-04, custom)"
   xmlns:inkscape="http://www.inkscape.org/namespaces/inkscape"
   xmlns:sodipodi="http://sodipodi.sourceforge.net/DTD/sodipodi-0.dtd"
   xmlns="http://www.w3.org/2000/svg"
   xmlns:svg="http://www.w3.org/2000/svg">
  <defs
     id="defs9" />
  <sodipodi:namedview
     id="namedview7"
     pagecolor="#ffffff"
     bordercolor="#666666"
     borderopacity="1.0"
     inkscape:pageshadow="2"
     inkscape:pageopacity="0.0"
     inkscape:pagecheckerboard="0"
     showgrid="false"
     inkscape:zoom="5.1107109"
     inkscape:cx="104.77994"
     inkscape:cy="4.3046849"
     inkscape:window-width="1920"
     inkscape:window-height="1015"
     inkscape:window-x="0"
     inkscape:window-y="36"
     inkscape:window-maximized="1"
     inkscape:current-layer="svg5" />
  <!---->
  <!---->
  <!---->
  <g
     data-v-423bf9ae=""
     id="e8a46236-d16f-4f18-accd-aee7d60b9c59"
     fill="#000000"
     transform="matrix(2.1481953,0,0,2.1481953,23.19163,14.101514)">
    <path
       d="M 0.52,0.71 V 10.5 H 2.23 V 7.38 l 2.7,3.12 H 6.99 V 10.37 L 3.78,6.85 6.59,3.7 V 3.6 H 4.55 L 2.23,6.37 V 0.71 Z m 12.71,3.6 C 12.43,3.61 11.62,3.4 10.54,3.4 9.28,3.4 7.63,3.96 7.63,5.56 c 0,1.57 1.55,2.04 2.86,2.14 0.98,0.06 1.37,0.25 1.37,0.73 0,0.5 -0.6,0.84 -1.25,0.82 C 9.84,9.24 8.72,8.83 8.23,8.29 L 7.39,9.51 c 1.01,1.05 2.1,1.23 3.19,1.23 1.98,0 2.97,-1.05 2.97,-2.27 C 13.55,6.64 11.9,6.34 10.6,6.26 9.72,6.2 9.31,5.95 9.31,5.5 c 0,-0.43 0.45,-0.68 1.26,-0.68 0.66,0 1.22,0.15 1.71,0.61 z m 2.11,-2.48 v 1.78 h -1.28 v 1.47 h 1.28 v 2.98 c 0,1.73 0.98,2.58 2.48,2.52 0.52,-0.01 0.93,-0.09 1.42,-0.29 L 18.76,8.83 C 18.51,8.96 18.2,9.04 17.93,9.04 17.4,9.04 17.04,8.72 17.04,8.06 V 5.08 h 1.92 V 3.61 H 17.05 V 1.65 Z M 26.53,10.5 V 6.8 c 0,-0.91 0.57,-1.7 1.5,-1.7 0.92,0 1.3,0.77 1.3,1.68 v 3.72 h 1.71 V 6.78 C 31.04,4.7 30.07,3.5 28.11,3.5 27.22,3.5 26.42,3.78 25.8,4.76 25.41,3.81 24.58,3.47 23.76,3.47 23.1,3.47 22.3,3.72 21.94,4.42 L 21.81,3.58 h -1.58 v 6.92 h 1.71 V 6.8 c 0,-0.91 0.54,-1.73 1.47,-1.73 0.94,0 1.41,0.82 1.41,1.73 v 3.7 z M 38.23,4.31 C 37.44,3.61 36.62,3.4 35.55,3.4 c -1.26,0 -2.92,0.56 -2.92,2.16 0,1.57 1.56,2.04 2.86,2.14 0.98,0.06 1.37,0.25 1.37,0.73 0,0.5 -0.6,0.84 -1.24,0.82 C 34.85,9.24 33.73,8.83 33.24,8.29 L 32.4,9.51 c 1,1.05 2.1,1.23 3.19,1.23 1.97,0 2.97,-1.05 2.97,-2.27 C 38.56,6.64 36.9,6.34 35.6,6.26 34.72,6.2 34.31,5.95 34.31,5.5 c 0,-0.43 0.45,-0.68 1.26,-0.68 0.66,0 1.22,0.15 1.71,0.61 z M 42.9,3.46 c -2.2,0 -3.57,1.62 -3.57,3.6 0,1.98 1.34,3.59 3.58,3.59 2.24,0 3.6,-1.61 3.6,-3.59 0,-1.98 -1.42,-3.6 -3.61,-3.6 z m 0.01,1.55 c 1.15,0 1.88,1.01 1.88,2.05 0,1.05 -0.63,2.03 -1.88,2.03 -1.25,0 -1.88,-0.98 -1.88,-2.03 0,-1.04 0.65,-2.05 1.88,-2.05 z m 7.04,5.49 V 5.19 h 2.03 V 3.7 H 49.95 V 3.23 C 49.95,2.39 50.4,2 50.99,2 c 0.35,0 0.68,0.13 1.05,0.37 L 52.67,1.09 C 52.11,0.73 51.48,0.53 50.88,0.53 c -1.39,0 -2.64,0.86 -2.64,2.7 V 3.7 h -1.28 v 1.49 h 1.28 v 5.31 z m 4.08,-8.67 v 1.78 h -1.29 v 1.47 h 1.29 v 2.98 c 0,1.73 0.98,2.58 2.47,2.52 0.52,-0.01 0.93,-0.09 1.42,-0.29 L 57.44,8.83 c -0.25,0.13 -0.56,0.21 -0.82,0.21 -0.54,0 -0.9,-0.32 -0.9,-0.98 V 5.08 h 1.92 V 3.61 H 55.73 V 1.65 Z"
       id="path2" />
  </g>
  <!---->
  <!---->
</svg>
