<?xml version="1.0" encoding="UTF-8" standalone="no"?>
<svg
   width="512"
   height="512"
   viewBox="0 0 512 512"
   version="1.1"
   id="svg4"
   sodipodi:docname="script-svgrepo-com.svg"
   inkscape:version="1.1.2 (0a00cf5339, 2022-02-04, custom)"
   xmlns:inkscape="http://www.inkscape.org/namespaces/inkscape"
   xmlns:sodipodi="http://sodipodi.sourceforge.net/DTD/sodipodi-0.dtd"
   xmlns="http://www.w3.org/2000/svg"
   xmlns:svg="http://www.w3.org/2000/svg">
  <defs
     id="defs8" />
  <sodipodi:namedview
     id="namedview6"
     pagecolor="#ffffff"
     bordercolor="#666666"
     borderopacity="1.0"
     inkscape:pageshadow="2"
     inkscape:pageopacity="0.0"
     inkscape:pagecheckerboard="0"
     showgrid="false"
     width="512px"
     inkscape:zoom="0.8203125"
     inkscape:cx="295.61905"
     inkscape:cy="404.72381"
     inkscape:window-width="1920"
     inkscape:window-height="1015"
     inkscape:window-x="0"
     inkscape:window-y="36"
     inkscape:window-maximized="1"
     inkscape:current-layer="svg4" />
  <path
     d="M 404.41125,404.41125 V 72.210477 c 0,-20.385491 -16.52571,-36.911197 -36.9112,-36.911197 H 102.53759 c 4.18745,7.238862 6.58408,15.643283 6.58408,24.607464 V 453.62618 c 0,13.59033 11.01714,24.60747 24.60747,24.60747 13.59032,0 24.60747,-11.01714 24.60747,-24.60747 v -36.9112 c 0,-6.79515 5.50856,-12.30373 12.30373,-12.30373 z m 24.60746,0 h 61.51867 c 6.79515,0 12.30372,5.50858 12.30372,12.30373 v 24.60747 c 0,33.97582 -27.54283,61.51865 -61.51865,61.51865 H 133.72914 c -27.18066,0 -49.214931,-22.03428 -49.214931,-49.21492 V 109.12167 H 59.906744 c -27.180654,0 -49.214929,-22.03427 -49.214929,-49.214926 0,-27.180654 22.034275,-49.214929 49.214929,-49.214929 H 367.50005 c 33.97582,0 61.51866,27.542843 61.51866,61.518662 z m -246.07465,24.60746 v 24.60747 c 0,8.96418 -2.39661,17.36862 -6.58407,24.60747 h 264.96246 c 20.38548,0 36.9112,-16.52572 36.9112,-36.9112 V 429.01871 Z M 84.514209,84.514209 V 59.906744 c 0,-13.590326 -11.017138,-24.607464 -24.607465,-24.607464 -13.590326,0 -24.607464,11.017138 -24.607464,24.607464 0,13.590327 11.017138,24.607465 24.607464,24.607465 z m 86.126131,49.214931 c -6.79517,0 -12.30373,-5.50857 -12.30373,-12.30373 0,-6.79516 5.50856,-12.30374 12.30373,-12.30374 h 172.25224 c 6.79516,0 12.30374,5.50858 12.30374,12.30374 0,6.79516 -5.50858,12.30373 -12.30374,12.30373 z m 0,73.82239 c -6.79517,0 -12.30373,-5.50856 -12.30373,-12.30373 0,-6.79517 5.50856,-12.30374 12.30373,-12.30374 h 172.25224 c 6.79516,0 12.30374,5.50857 12.30374,12.30374 0,6.79517 -5.50858,12.30373 -12.30374,12.30373 z m 0,73.8224 c -6.79517,0 -12.30373,-5.50858 -12.30373,-12.30374 0,-6.79515 5.50856,-12.30373 12.30373,-12.30373 h 172.25224 c 6.79516,0 12.30374,5.50858 12.30374,12.30373 0,6.79516 -5.50858,12.30374 -12.30374,12.30374 z m 0,73.82239 c -6.79517,0 -12.30373,-5.50858 -12.30373,-12.30374 0,-6.79515 5.50856,-12.30372 12.30373,-12.30372 h 123.03732 c 6.79515,0 12.30373,5.50857 12.30373,12.30372 0,6.79516 -5.50858,12.30374 -12.30373,12.30374 z"
     id="path2"
     style="stroke-width:24.6074" />
</svg>
